{"title":"Katy Perry - Roar x264 AAC 720p E-Subs [GWC].mp4","uid":8886042,"size":74542447,"categoryP":"video","categoryS":"music_videos","magnet":"?xt=urn:btih:597f2571dcefaf51ded67479baa385beee36274a&amp;dn=Katy+Perry+-+Roar+x264+AAC+720p+E-Subs+%5BGWC%5D.mp4&amp;tr=udp%3A%2F%2Ftracker.openbittorrent.com%3A80&amp;tr=udp%3A%2F%2Fopen.demonii.com%3A1337&amp;tr=udp%3A%2F%2Ftracker.coppersurfer.tk%3A6969&amp;tr=udp%3A%2F%2Fexodus.desync.com%3A6969","seeders":3,"leechers":0,"uploader":"canc232","files":1,"time":1378463666,"description":"Katy Perry - Roar x264 AAC 720p E-Subs [GWC]\n\nCOVER : &lt;a href=&quot;\nhttp://s20.postimg.org/vci2u5am5/url.jpg&quot; rel=&quot;nofollow&quot; target=&quot;_NEW&quot;&gt;\nhttp://s20.postimg.org/vci2u5am5/url.jpg&lt;/a&gt;\n\nKaty Perry looks stunning in all her Jane of the Jungle glory as she belts out the catchy song.\nThe video shows her enduring a plane crash and learning how to take care of herself in the wilderness after her boyfriend is eaten by a tiger.\nAnd between taking selfies with her pet monkey and painting an elephant's toenails, Katy seems to be having the time of her life in her new home.\n\nTHUMBNAIL IMAGE :\n &lt;a href=&quot;\nhttp://img545.imageshack.us/img545/1966/96gx.jpg&quot; rel=&quot;nofollow&quot; target=&quot;_NEW&quot;&gt;\nhttp://img545.imageshack.us/img545/1966/96gx.jpg&lt;/a&gt;\n\nMEDIA INFO :\nGeneral \nFormat : MPEG-4 \nFormat profile : Base Media \nFile size : 71.1 MiB \nDuration : 4mn 29s \nOverall bit rate mode : Variable \nOverall bit rate : 2 215 Kbps \n\nVideo \nID : 1 \nFormat : AVC \nFormat profile : &lt;a class=&quot;__cf_email__&quot; href=&quot;/cdn-cgi/l/email-protection&quot; data-cfemail=&quot;d994b8b0b79995eaf7e8&quot;&gt;[email&amp;#160;protected]&lt;/a&gt;&lt;script cf-hash='f9e31' type=&quot;text/javascript&quot;&gt;\n/* &lt;![CDATA[ */!function(){try{var t=&quot;currentScript&quot;in document?document.currentScript:function(){for(var t=document.getElementsByTagName(&quot;script&quot;),e=t.length;e--;)if(t[e].getAttribute(&quot;cf-hash&quot;))return t[e]}();if(t&amp;&amp;t.previousSibling){var e,r,n,i,c=t.previousSibling,a=c.getAttribute(&quot;data-cfemail&quot;);if(a){for(e=&quot;&quot;,r=parseInt(a.substr(0,2),16),n=2;a.length-n;n+=2)i=parseInt(a.substr(n,2),16)^r,e+=String.fromCharCode(i);e=document.createTextNode(e),c.parentNode.replaceChild(e,c)}}}catch(u){}}();/* ]]&gt; */&lt;/script&gt; \nFormat settings, CABAC : Yes \nFormat settings, ReFrames : 3 frames \nDuration : 4mn 29s \nSource duration : 4mn 29s \nBit rate : 2 122 Kbps \nMaximum bit rate : 5 443 Kbps \nWidth : 1 280 pixels \nHeight : 720 pixels \nDisplay aspect ratio : 16:9 \nFrame rate : 23.976 fps \nTitle : Katy Perry - Roar x264 AAC 720p [GWC] \n\nAudio \nID : 2 \nFormat : AAC \nFormat profile : LC \nCodec ID : 40 \nDuration : 4mn 29s \nBit rate mode : Variable \nChannel(s) : 2 channels \nChannel positions : Front: L R \nSampling rate : 44.1 KHz \nStream size : 2.94 MiB (4%) \nTitle : Katy Perry - Roar x264 AAC 720p [GWC] \nLanguage : English \n\nText \nID : 3 \nFormat : Timed Text \nDuration : 4mn 11s \nBit rate mode : Variable \nBit rate : 85 bps \nStream size : 2.60 KiB (0%) \nTitle : English Subtitle by [GWC] \nLanguage : English","torrent":{"xt":"urn:btih:597f2571dcefaf51ded67479baa385beee36274a","amp;dn":"Katy+Perry+-+Roar+x264+AAC+720p+E-Subs+%5BGWC%5D.mp4","amp;tr":["udp%3A%2F%2Ftracker.openbittorrent.com%3A80","udp%3A%2F%2Fopen.demonii.com%3A1337","udp%3A%2F%2Ftracker.coppersurfer.tk%3A6969","udp%3A%2F%2Fexodus.desync.com%3A6969"],"infoHash":"597f2571dcefaf51ded67479baa385beee36274a","infoHashBuffer":{"type":"Buffer","data":[89,127,37,113,220,239,175,81,222,214,116,121,186,163,133,190,238,54,39,74]},"announce":[],"urlList":[]}}